# File created by Blade
# Date/Time:  Wed Jan 21 16:20:09 2015
#---------------------------------------------------------
:version 1.10
:name HOM
:units
  mass 1.0
  length 1.000000
  angle deg
:documentation
     Acclaim Skeleton File
:root
   axis xyz
   order TX TY TZ RX RY RZ
   position 0.000000 0.000000 0.000000
   orientation 0 0 0
:bonedata
   begin
      id 1
      name Spine_dum
      direction 0.000000 1.000000 0.000000
      length 7.067664
      axis 0.0 0.0 0.0 xyz
   end
   begin
      id 2
      name LeftUpLeg_dum
      direction 1.000000 0.000000 0.000000
      length 4.013002
      axis 0.0 0.0 0.0 xyz
   end
   begin
      id 3
      name RightUpLeg_dum
      direction -1.000000 0.000000 0.000000
      length 4.013002
      axis 0.0 0.0 0.0 xyz
   end
   begin
      id 4
      name Spine
      direction 0.000000 1.000000 0.000000
      length 0.000000
      axis 0.0 0.0 0.0 xyz
      dof rx ry rz
   end
   begin
      id 5
      name Spine_dum1
      direction 0.000000 1.000000 0.000000
      length 15.039886
      axis 0.0 0.0 0.0 xyz
   end
   begin
      id 6
      name Spine_dum2
      direction 0.000000 1.000000 0.000000
      length 10.530368
      axis 0.0 0.0 0.0 xyz
   end
   begin
      id 7
      name Spine_dum3
      direction 0.000000 1.000000 0.000000
      length 10.530368
      axis 0.0 0.0 0.0 xyz
   end
   begin
      id 8
      name Head
      direction 0.000000 1.000000 0.000000
      length 4.527550
      axis 0.0 0.0 0.0 xyz
      dof rx ry rz
   end
   begin
      id 9
      name LeftShoulder
      direction 1.000000 0.000000 0.000000
      length 7.028855
      axis 0.0 0.0 -90.0 xyz
      dof rx ry rz
   end
   begin
      id 10
      name LeftArm
      direction 1.000000 0.000000 0.000000
      length 10.797705
      axis 0.0 0.0 -90.0 xyz
      dof rx ry rz
   end
   begin
      id 11
      name LeftForeArm
      direction 1.000000 0.000000 0.000000
      length 7.907442
      axis 0.0 0.0 -90.0 xyz
      dof ry rz rx
   end
   begin
      id 12
      name LeftHand
      direction 0.000000 0.000000 0.000000
      length 0.000000
      axis 0.0 0.0 -90.0 xyz
      dof rx ry rz
   end
   begin
      id 13
      name LeftHand_dum1
      direction 0.000000 0.000000 0.000000
      length 0.000000
      axis 0.0 0.0 -90.0 xyz
   end
   begin
      id 14
      name LeftHand_dum2
      direction 1.000000 0.000000 0.000000
      length 3.937000
      axis 0.0 0.0 -90.0 xyz
   end
   begin
      id 15
      name LeftHandThumb1
      direction 0.000000 0.000000 1.000000
      length 3.937000
      axis 0.0 0.0 -90.0 xyz
      dof rx rz ry
   end
   begin
      id 16
      name RightShoulder
      direction -1.000000 0.000000 0.000000
      length 7.028855
      axis 0.0 0.0 90.0 xyz
      dof rx ry rz
   end
   begin
      id 17
      name RightArm
      direction -1.000000 0.000000 0.000000
      length 10.797705
      axis 0.0 0.0 90.0 xyz
      dof rx ry rz
   end
   begin
      id 18
      name RightForeArm
      direction -1.000000 0.000000 0.000000
      length 7.907442
      axis 0.0 0.0 90.0 xyz
      dof ry rz rx
   end
   begin
      id 19
      name RightHand
      direction 0.000000 0.000000 0.000000
      length 0.000000
      axis 0.0 0.0 90.0 xyz
      dof rx ry rz
   end
   begin
      id 20
      name RightHand_dum1
      direction 0.000000 0.000000 0.000000
      length 0.000000
      axis 0.0 0.0 90.0 xyz
   end
   begin
      id 21
      name RightHand_dum2
      direction -1.000000 0.000000 0.000000
      length 3.937000
      axis 0.0 0.0 90.0 xyz
   end
   begin
      id 22
      name RightHandThumb1
      direction 0.000000 0.000000 1.000000
      length 3.937000
      axis 0.0 0.0 90.0 xyz
      dof rx rz ry
   end
   begin
      id 23
      name LeftUpLeg
      direction 0.000000 -1.000000 0.000000
      length 16.899758
      axis 0.0 0.0 0.0 xyz
      dof rx ry rz
   end
   begin
      id 24
      name LeftLeg
      direction 0.000000 -1.000000 0.000000
      length 17.389183
      axis 0.0 0.0 0.0 xyz
      dof rx ry rz
   end
   begin
      id 25
      name LeftFoot
      direction 0.000000 -0.258819 0.965926
      length 4.924528
      axis 15.0 0.0 0.0 xyz
      dof rx ry rz
   end
   begin
      id 26
      name LeftToeBase
      direction 0.000000 0.000000 1.000000
      length 2.952750
      axis 0.0 0.0 0.0 xyz
      dof rx ry rz
   end
   begin
      id 27
      name RightUpLeg
      direction 0.000000 -1.000000 0.000000
      length 16.899758
      axis 0.0 0.0 0.0 xyz
      dof rx ry rz
   end
   begin
      id 28
      name RightLeg
      direction 0.000000 -1.000000 0.000000
      length 17.389183
      axis 0.0 0.0 0.0 xyz
      dof rx ry rz
   end
   begin
      id 29
      name RightFoot
      direction 0.000000 -0.258819 0.965926
      length 4.924528
      axis 15.0 0.0 0.0 xyz
      dof rx ry rz
   end
   begin
      id 30
      name RightToeBase
      direction 0.000000 0.000000 1.000000
      length 2.952750
      axis 0.0 0.0 0.0 xyz
      dof rx ry rz
   end
:hierarchy
   begin
      root Spine_dum LeftUpLeg_dum RightUpLeg_dum
      Spine_dum Spine
      LeftUpLeg_dum LeftUpLeg
      RightUpLeg_dum RightUpLeg
      Spine Spine_dum1 Spine_dum2 Spine_dum3
      Spine_dum1 Head
      Spine_dum2 LeftShoulder
      Spine_dum3 RightShoulder
      LeftShoulder LeftArm
      LeftArm LeftForeArm
      LeftForeArm LeftHand
      LeftHand LeftHand_dum1 LeftHand_dum2
      LeftHand_dum1 LeftHandThumb1
      RightShoulder RightArm
      RightArm RightForeArm
      RightForeArm RightHand
      RightHand RightHand_dum1 RightHand_dum2
      RightHand_dum1 RightHandThumb1
      LeftUpLeg LeftLeg
      LeftLeg LeftFoot
      LeftFoot LeftToeBase
      RightUpLeg RightLeg
      RightLeg RightFoot
      RightFoot RightToeBase
   end

# File created by Blade
# Date/Time:  Wed Jan 21 16:20:01 2015
# Frame Rate: 120.000 fps
#------------------------------------------------------
:FULLY-SPECIFIED
:DEGREES
35
root 19.004991 35.671144 -21.527327 -177.979273 -0.922642 -177.670093
Spine -12.300932 0.219596 2.485462
Head 17.396576 -0.113127 1.025949
LeftShoulder -11.109074 -31.922535 14.526005
LeftArm 8.308240 7.605136 -5.463006
LeftForeArm 7.022543 0.000000 -2.153994
LeftHand -10.897839 -0.000000 1.738418
LeftHandThumb1 -26.253704 0.000000 33.147579
RightShoulder -9.794797 -4.192387 -7.345247
RightArm 14.243717 34.159219 11.487516
RightForeArm -37.236705 -0.000000 3.794918
RightHand -7.755461 -0.000000 4.141413
RightHandThumb1 -24.326973 -0.000000 -32.862282
LeftUpLeg 6.262108 3.087465 3.413546
LeftLeg -11.433716 -0.000000 0.000000
LeftFoot 1.799169 25.749276 7.331863
LeftToeBase -146.621088 -0.000000 0.000000
RightUpLeg 3.030402 -8.384719 -0.613525
RightLeg 2.006855 -0.000000 -0.000000
RightFoot -21.840313 -20.422008 21.474879
RightToeBase 22.512071 -0.000000 -0.000000
36
root 18.958502 35.675543 -21.500047 -178.147327 -0.846316 -177.696222
Spine -12.096193 0.250811 2.448607
Head 17.816706 -0.126823 1.082447
LeftShoulder -10.926561 -31.842088 14.292082
LeftArm 8.460759 8.158076 -5.716218
LeftForeArm 7.004198 -0.000000 -2.030151
LeftHand -10.916980 -0.000000 1.672847
LeftHandThumb1 -26.253704 0.000000 33.147579
RightShoulder -9.601754 -4.338797 -7.269622
RightArm 14.615568 33.198084 11.709975
RightForeArm -37.097631 -0.000000 3.898862
RightHand -7.877803 -0.000000 3.485512
RightHandThumb1 -24.326973 -0.000000 -32.862282
LeftUpLeg 6.361104 3.074313 3.308650
LeftLeg -11.354267 -0.000000 0.000000
LeftFoot 1.782722 25.810387 7.354800
LeftToeBase -146.669414 -0.000000 0.000000
RightUpLeg 2.972708 -8.362565 -0.735981
RightLeg 2.336635 -0.000000 -0.000000
RightFoot -21.884626 -20.392104 21.568220
RightToeBase 22.319936 -0.000000 -0.000000
37
root 18.907842 35.679795 -21.472190 -178.340510 -0.760032 -177.724039
Spine -11.834509 0.313716 2.406754
Head 18.193749 -0.171808 1.128048
LeftShoulder -10.734742 -31.727098 14.072542
LeftArm 8.578340 8.672376 -6.030888
LeftForeArm 6.906476 -0.000000 -1.859309
LeftHand -10.875178 0.000000 1.424460
LeftHandThumb1 -26.253704 0.000000 33.147579
RightShoulder -9.453186 -4.615894 -7.196956
RightArm 14.998256 32.264113 11.971557
RightForeArm -36.990385 0.000000 3.977696
RightHand -7.777150 0.000000 2.639872
RightHandThumb1 -24.326973 -0.000000 -32.862282
LeftUpLeg 6.509673 3.039277 3.195781
LeftLeg -11.317462 -0.000000 0.000000
LeftFoot 1.816234 25.870263 7.374977
LeftToeBase -146.732725 -0.000000 0.000000
RightUpLeg 2.905077 -8.345800 -0.862650
RightLeg 2.729157 -0.000000 -0.000000
RightFoot -21.915024 -20.365794 21.602473
RightToeBase 22.242972 -0.000000 -0.000000
38
root 18.855093 35.684929 -21.440288 -178.494100 -0.646816 -177.751225
Spine -11.628721 0.374457 2.377154
Head 18.554813 -0.196373 1.161559
LeftShoulder -10.615478 -31.488336 13.878894
LeftArm 8.807155 9.246078 -6.390432
LeftForeArm 6.579304 -0.000000 -1.856757
LeftHand -10.892374 -0.000000 1.305531
LeftHandThumb1 -26.253704 0.000000 33.147579
RightShoulder -9.204212 -5.005487 -7.175275
RightArm 15.318605 31.447702 12.300493
RightForeArm -36.793499 0.000000 4.033067
RightHand -7.432698 -0.000000 1.802168
RightHandThumb1 -24.326973 -0.000000 -32.862282
LeftUpLeg 6.615784 3.044630 3.076898
LeftLeg -11.285586 -0.000000 0.000000
LeftFoot 1.827210 25.947466 7.395352
LeftToeBase -146.847859 -0.000000 0.000000
RightUpLeg 2.787165 -8.239064 -0.984312
RightLeg 3.117278 -0.000000 -0.000000
RightFoot -21.970505 -20.386409 21.665168
RightToeBase 22.267908 -0.000000 -0.000000
